<svg width="72" height="72" viewBox="0 0 72 72" fill="none" xmlns="http://www.w3.org/2000/svg">
<path d="M52.2 42.4125L60.75 63.45L50.85 62.2125L44.775 69.8625L37.4625 48.9375M19.8 42.4125L11.25 63.45L21.15 62.2125L27.3375 69.8625L34.5375 48.9375L19.8 42.4125Z" stroke="black" stroke-width="2" stroke-miterlimit="10" stroke-linecap="round" stroke-linejoin="round"/>
<path d="M36 39.2625C43.4558 39.2625 49.5 33.2183 49.5 25.7625C49.5 18.3066 43.4558 12.2625 36 12.2625C28.5442 12.2625 22.5 18.3066 22.5 25.7625C22.5 33.2183 28.5442 39.2625 36 39.2625Z" stroke="black" stroke-width="2" stroke-miterlimit="10" stroke-linecap="round" stroke-linejoin="round"/>
<path d="M36 5.06248L41.0625 2.13748L44.55 6.86248L50.2875 6.29998L51.525 11.925L57.0375 13.8375L55.9125 19.4625L60.1875 23.4L56.8125 28.125L59.175 33.525L54.1125 36.45V42.1875L48.2625 42.8625L45.9 48.15L40.3875 46.4625L36 50.2875L31.6125 46.4625L26.1 48.15L23.7375 42.8625L17.8875 42.1875V36.45L12.825 33.525L15.1875 28.125L11.8125 23.4L16.0875 19.4625L14.9625 13.8375L20.475 11.925L21.7125 6.29998L27.45 6.86248L30.9375 2.13748L36 5.06248Z" stroke="black" stroke-width="2" stroke-miterlimit="10" stroke-linecap="round" stroke-linejoin="round"/>
</svg>
