<?xml version="1.0" encoding="UTF-8"?>
<svg width="134px" height="134px" viewBox="0 0 134 134" version="1.1" xmlns="http://www.w3.org/2000/svg" xmlns:xlink="http://www.w3.org/1999/xlink">
    <!-- Generator: Sketch 60 (88103) - https://sketch.com -->
    <title>Combined Shape</title>
    <desc>Created with Sketch.</desc>
    <g id="Screens" stroke="none" stroke-width="1" fill="none" fill-rule="evenodd">
        <g id="Desktop-HD-Copy-6" transform="translate(-336.000000, -4566.000000)" fill="#E20015">
            <path d="M336,4566 L470,4566 L470,4700 L336,4700 L336,4566 Z M418.87,4638.00005 L418.87,4673.85005 C414.151233,4675.65529 409.151756,4676.6166 404.1,4676.6901 L403.38,4676.6901 C398.262035,4676.69746 393.183341,4675.79684 388.38,4674.03005 L388.38,4638.03005 L418.87,4638.00005 Z M403.38,4590.00003 C408.674228,4589.9942 413.92456,4590.96021 418.87,4592.85005 L418.87,4628.41005 L383.28,4628.41005 C380.74509,4628.56316 378.76594,4630.66053 378.76,4633.20005 L378.76,4669.05005 C367.211427,4661.10648 360.221235,4648.06508 360,4634.05005 L360,4633.35005 C360.002194,4609.69078 378.973993,4590.40301 402.63,4590.01005 L403.38,4590.00003 Z M428.46,4598.00005 C439.717987,4605.97347 446.500377,4618.83624 446.720014,4632.63005 L446.720014,4633.35005 C446.731317,4647.39859 439.923177,4660.57865 428.46,4668.70005 L428.46,4598.00005 Z" id="Combined-Shape"></path>
        </g>
    </g>
</svg>