<svg width="134" height="134" viewBox="0 0 134 134" fill="none" xmlns="http://www.w3.org/2000/svg">
<rect x="1.8" y="1.8" width="130.4" height="130.4" fill="white" stroke="#342A2A" stroke-width="3.6"/>
<path fill-rule="evenodd" clip-rule="evenodd" d="M92.9938 70.5684C92.9886 77.0615 97.9255 82.0232 104.372 81.9997C110.866 81.9789 115.895 77.0432 115.853 70.7171C115.86 67.7234 114.662 64.8504 112.522 62.7353C110.383 60.6201 107.479 59.4377 104.456 59.4502C98.1125 59.4319 92.9938 64.3937 92.9938 70.5684ZM110.799 70.5587C110.805 70.6333 110.81 70.7078 110.816 70.7823C110.795 72.8354 110.233 74.6432 108.7 76.1276C106.395 78.3345 100.515 78.5667 98.6894 74.0093C97.5856 71.2519 97.7147 68.5284 99.6299 66.0684C100.894 64.4484 102.644 63.9267 104.617 63.9267C108.497 63.9476 110.629 66.8693 110.763 69.9997C110.77 70.1861 110.785 70.3724 110.799 70.5587Z" fill="#342A2A"/>
<path d="M46.6598 81.426H41.8389C41.8389 81.1651 41.8072 80.9042 41.8072 80.6564C41.8072 76.9834 41.8336 73.3103 41.7888 69.6373C41.7853 68.5974 41.6535 67.5619 41.3963 66.5538C40.9563 64.9129 39.7735 64.0547 38.0585 63.8825C35.7086 63.6477 33.9646 64.8999 33.58 67.206C33.4522 67.9988 33.3897 68.8005 33.3929 69.6034C33.3745 73.2764 33.3929 76.9494 33.3929 80.6225V81.3868H28.464C28.4428 81.266 28.4287 81.1441 28.4218 81.0216C28.4218 76.6964 28.3849 72.3712 28.4587 68.0486C28.4903 66.3477 28.8275 64.6886 29.8365 63.2173C31.3223 61.0651 33.4246 59.9303 35.972 59.6042C38.2745 59.3094 40.5427 59.5129 42.587 60.7286C44.958 62.1347 46.4912 64.1512 46.565 66.9425C46.6888 71.6773 46.6704 76.4147 46.7099 81.1494C46.7008 81.2428 46.684 81.3353 46.6598 81.426Z" fill="#342A2A"/>
<path d="M61.8841 60.0868H66.7367V60.8694C66.7367 64.5424 66.7367 68.2129 66.7367 71.8859C66.7344 72.6676 66.8014 73.448 66.9369 74.2181C67.4638 77.1111 69.4949 77.959 72.0661 77.5155C73.8417 77.2077 74.6742 75.9503 74.9903 74.3094C75.1311 73.497 75.1963 72.6736 75.1852 71.8494C75.2037 68.2207 75.1852 64.592 75.1852 60.9633C75.1852 60.7024 75.1852 60.4416 75.1852 60.1364H80.0009C80.0279 60.3092 80.0455 60.4834 80.0536 60.6581C80.0536 64.9807 80.0747 69.3059 80.0062 73.6285C79.9799 75.2381 79.6611 76.8216 78.7074 78.2016C76.8475 80.9381 74.113 81.9842 70.9201 81.9998C67.7773 81.9998 65.1376 80.9042 63.2276 78.3477C62.3628 77.1803 61.8968 75.7702 61.8973 74.3224C61.8393 69.6737 61.8499 65.0251 61.834 60.3764C61.8434 60.2787 61.8601 60.1819 61.8841 60.0868V60.0868Z" fill="#342A2A"/>
<path d="M56.3545 52.2607V60.019H58.5121V64.6025H56.3808V81.392H51.4571V64.6468H49.4049V60.0868H51.4571V52.2607H56.3545Z" fill="#342A2A"/>
<path d="M18.9669 81.3425V60.1207H23.7721V81.3425H18.9669Z" fill="#342A2A"/>
<path d="M84.6506 60.0868H88.8657C89.058 60.0868 89.2503 60.1051 89.4821 60.1155V81.3346H84.6506V60.0868Z" fill="#342A2A"/>
<path d="M24.5861 55.3625C24.5861 57.2121 23.2689 58.5451 21.4407 58.5529C19.6124 58.5608 18.224 57.2042 18.2319 55.3442C18.2105 54.5093 18.5373 53.7025 19.1355 53.1137C19.7336 52.5249 20.5502 52.206 21.3932 52.2321C23.2689 52.2269 24.5861 53.5208 24.5861 55.3625Z" fill="#342A2A"/>
<path d="M86.9795 58.5216C85.3672 58.6677 83.7523 57.0816 83.8919 55.1303C84.0026 53.5651 85.5121 52.1329 87.1006 52.1773C87.9647 52.2059 88.7801 52.5799 89.3609 53.214C89.9417 53.8481 90.2383 54.6882 90.1829 55.5425C90.1831 56.3667 89.839 57.1543 89.2323 57.7186C88.6256 58.2829 87.8102 58.5735 86.9795 58.5216Z" fill="#CC3E3E"/>
</svg>
