<svg width="158" height="29" viewBox="0 0 158 29" fill="none" xmlns="http://www.w3.org/2000/svg">
<path fill-rule="evenodd" clip-rule="evenodd" d="M114.308 3.28233V0.382407C113.671 0.127469 113.001 0 112.3 0C108.604 0 107.488 2.61312 107.488 5.86358V13.1293H106.182V15.8062H107.488V28.0432H110.356V15.8062H114.308V13.1293H110.356V6.72399C110.356 5.2581 110.356 2.67685 112.396 2.67685C112.955 2.67685 113.623 2.97589 114.174 3.22244L114.308 3.28233ZM50.8283 1.7527V19.5665L56.8831 13.3205H58.7314L52.5491 19.694L60.8027 28.0432H58.9226L51.625 20.6819L50.8283 21.5104V28.0432H49.3943V1.7527H50.8283ZM21.7016 28.8399V4.01528H20.172V24.9839L0 3.6966V28.0432H1.52963V7.39321L21.7016 28.8399ZM28.7124 28.0432V13.3205H27.2784V28.0432H28.7124ZM28.0113 7.1064C28.7443 7.1064 29.3179 7.71188 29.3179 8.41296C29.3179 9.1459 28.7443 9.71952 28.0113 9.71952C27.2784 9.71952 26.7048 9.1459 26.7048 8.41296C26.7048 7.71188 27.2784 7.1064 28.0113 7.1064ZM45.4746 16.7303V14.8183C44.0087 13.5755 42.256 13.0018 40.344 13.0018C36.01 13.0018 32.7595 16.3798 32.7595 20.65C32.7595 24.9521 35.9463 28.3619 40.3121 28.3619C42.2879 28.3619 44.168 27.6289 45.6658 26.3224V24.3785C44.3274 26.0037 42.3516 27.0234 40.2484 27.0234C36.7748 27.0234 34.1936 23.996 34.1936 20.65C34.1936 17.3039 36.8067 14.3403 40.2802 14.3403C42.3835 14.3403 44.0724 15.2007 45.4746 16.7303ZM87.6668 28.0432L80.0824 17.5907C83.556 17.1765 85.8504 14.3084 85.8504 10.8667C85.8504 8.57229 84.7032 6.30972 82.6956 5.13063C80.7835 4.04714 78.4891 4.01528 76.354 4.01528H72.7211V28.0432H75.7166V17.8775H76.9594L84.034 28.0432H87.6668ZM75.7166 6.69213V15.3919H76.6726C79.7319 15.3919 83.0461 14.8183 83.0461 10.9942C83.0461 7.23387 79.477 6.69213 76.5133 6.69213H75.7166ZM104.302 20.6181C104.302 16.1248 100.796 12.6832 96.3347 12.6832C91.8733 12.6832 88.3679 16.1248 88.3679 20.6181C88.3679 25.1114 91.8733 28.5531 96.3347 28.5531C100.796 28.5531 104.302 25.1114 104.302 20.6181ZM96.3347 15.4238C93.4986 15.4238 91.236 17.7819 91.236 20.6181C91.236 23.4224 93.4986 25.8125 96.3347 25.8125C99.1709 25.8125 101.434 23.4224 101.434 20.6181C101.434 17.7819 99.1709 15.4238 96.3347 15.4238ZM123.071 0.382407V3.28233L122.937 3.22244C122.387 2.97589 121.719 2.67685 121.159 2.67685C119.12 2.67685 119.12 5.2581 119.12 6.72399V13.1293H123.071V15.8062H119.12V28.0432H116.252V15.8062H114.945V13.1293H116.252V5.86358C116.252 2.61312 117.367 0 121.064 0C121.765 0 122.434 0.127469 123.071 0.382407ZM126.163 21.0643H137.539V20.6181C137.539 16.1886 135.308 12.6832 130.56 12.6832C125.748 12.6832 123.294 16.1248 123.294 20.7137C123.294 25.1114 126.067 28.5531 130.624 28.5531C133.524 28.5531 136.137 27.0553 137.539 24.4741L135.117 23.1038C134.034 24.8883 132.855 26.0037 130.656 26.0037C127.915 26.0037 126.194 23.6136 126.163 21.0643ZM126.322 18.8973H134.671C134.321 16.6666 132.855 15.1688 130.56 15.1688C128.329 15.1688 126.672 16.7622 126.322 18.8973ZM143.498 28.0432V13.1293H140.63V28.0432H143.498ZM142.064 4.30208C143.148 4.30208 144.04 5.19436 144.04 6.30972C144.04 7.39321 143.148 8.25362 142.064 8.25362C140.981 8.25362 140.089 7.39321 140.089 6.30972C140.089 5.19436 140.981 4.30208 142.064 4.30208ZM154.078 16.5391L156.405 15.2963C155.608 13.6711 154.142 12.6832 152.326 12.6832C149.904 12.6832 147.928 14.5952 147.928 17.0171C147.928 19.0566 149.139 19.8852 150.796 20.7775L153.6 22.2752C154.269 22.7214 154.652 23.1038 154.652 23.9004C154.652 25.1751 153.6 26.0037 152.389 26.0037C151.019 26.0037 150.286 25.207 149.681 24.0917L147.227 25.207C148.023 27.3102 150.222 28.5531 152.389 28.5531C155.162 28.5531 157.52 26.4498 157.52 23.6136C157.52 21.2555 155.831 20.172 154.078 19.3753C153.863 19.2773 153.647 19.1826 153.436 19.0896C151.928 18.4264 150.605 17.8442 150.605 16.6984C150.605 15.8699 151.37 15.2326 152.166 15.2326C152.995 15.2326 153.728 15.8062 154.078 16.5391Z" fill="black"/>
</svg>
